# xmcd CD database file
#
# Track frame offsets:
#	150
#	12810
#	26553
#	38013
#	51602
#	71287
#	87626
#	97695
#	109965
#	127039
#	137599
#	155189
#	170883
#	184515
#	198716
#	210007
#	219391
#	234117
#	252395
#	264889
#
# Disc length: 3709 seconds
#
# Revision: 2
# Processed by: cddbd v1.5.2PL0 Copyright (c) Steve Scherf et al.
# Submitted via: CDex 1.81
#
DISCID=150e7b14
DTITLE=Gordon Pattullo - Scottish Accordion Hits
DYEAR=2003
DGENRE=National Folk
TTITLE0=Sailor's Hornpipe
TTITLE1=The Cuckoo Walz
TTITLE2=Two-Step:The Painters Choice
TTITLE3=Para Handy
TTITLE4=Selection Of Reels
TTITLE5=The Mist-Covered Mountains Of Home
TTITLE6=Alpine Holiday
TTITLE7=Selection Of Jigs
TTITLE8=Retreat March
TTITLE9=Happy Hours Polka
TTITLE10=Dashing White Sergeant
TTITLE11=Misty Islands Of The Highlands
TTITLE12=Pipe Hornpipes
TTITLE13=Les Triolets
TTITLE14=The Dark Island
TTITLE15=Pigeon Pie
TTITLE16=The Moors Of Perth
TTITLE17=Shuffling Samuel/Whistling Rufus
TTITLE18=Momories Of Willie Snaith
TTITLE19=Dancing Fingers
EXTD=YEAR: 2003
EXTT0=
EXTT1=
EXTT2=
EXTT3=
EXTT4=
EXTT5=
EXTT6=
EXTT7=
EXTT8=
EXTT9=
EXTT10=
EXTT11=
EXTT12=
EXTT13=
EXTT14=
EXTT15=
EXTT16=
EXTT17=
EXTT18=
EXTT19=
PLAYORDER=
